<svg height="85.333336" viewBox="0 0 85.333336 85.333336" width="85.333336" xmlns="http://www.w3.org/2000/svg"><g transform="matrix(.13333333 0 0 -.13333333 0 85.333333)"><path d="m640 320c0-176.73-143.27-320-320-320s-320 143.27-320 320 143.27 320 320 320 320-143.27 320-320" fill="#e1e3cc"/><path d="m180 120h-20c-11.047 0-20 8.953-20 20v23.426-3.426c0-11.047 8.953-20 20-20h20c11.047 0 20 8.953 20 20v-20c0-11.047-8.953-20-20-20" fill="#b7b7a7"/><path d="m480 120h-20c-11.047 0-20 8.953-20 20v20c0-11.047 8.953-20 20-20h20c11.047 0 20 8.953 20 20v-20c0-11.047-8.953-20-20-20" fill="#b7b7a7"/><path d="m200 160c0-11.047-8.953-20-20-20h-20c-11.047 0-20 8.953-20 20v110c0 11.047 8.953 20 20 20h20c11.047 0 20-8.953 20-20z" fill="#495672"/><path d="m500 160c0-11.047-8.953-20-20-20h-20c-11.047 0-20 8.953-20 20v110c0 11.047 8.953 20 20 20h20c11.047 0 20-8.953 20-20z" fill="#495672"/><path d="m140.094 326.605c-.063 1.125-.094 2.254-.094 3.395l.391 3.922.816 4.066c.707-3.484 1.719-6.859 3-10.097-1.391-.379-2.762-.809-4.113-1.286m359.812 0c-1.351.477-2.722.907-4.113 1.286 1.172 2.961 2.117 6.039 2.812 9.211l1.395-7.102c0-1.141-.031-2.27-.094-3.395m-317.437 13.754c-1.328 2.399-2.168 5.09-2.403 7.996l19.418 97.083c2.106 7.656 5.637 14.8 9.305 18.89 1.879 2.141 3.672 3.508 5.363 4.356 1.715.836 3.344 1.293 5.848 1.316h200c2.504-.023 4.133-.48 5.848-1.316 2.504-1.235 5.39-3.801 8.14-8.075 2.641-4.062 4.957-9.515 6.535-15.203l19.411-97.051c-.235-2.906-1.075-5.597-2.403-7.996l-17.004 85.032c-2.199 7.867-8.308 24.609-20.527 24.609h-200c-12.219 0-18.328-16.742-20.527-24.609z" fill="#b7b7a7"/><path d="m480 350h-20c-.012-5.586-2.207-10.461-5.859-14.141-3.68-3.652-8.555-5.847-14.141-5.859h-240c-5.586.012-10.461 2.207-14.141 5.859-3.652 3.68-5.847 8.555-5.859 14.141h-20l19.609-3.922 20.004 100-19.613 3.922 19.309-5.211c2.082 7.902 5.711 15.336 9.48 19.539 1.879 2.141 3.672 3.508 5.363 4.356 1.715.836 3.344 1.293 5.848 1.316h200c2.504-.023 4.133-.48 5.848-1.316 2.504-1.235 5.39-3.801 8.14-8.075 2.735-4.211 5.121-9.914 6.703-15.82l19.309 5.211-19.613-3.922 20-100 19.613 3.922h-20 20l19.609 3.922-20.129 100.652-.171.637c-3.317 12.102-8.641 24.668-18 35.465-4.688 5.355-10.496 10.242-17.536 13.765-7.011 3.543-15.23 5.582-23.773 5.559h-200c-8.543.023-16.762-2.016-23.773-5.559-10.59-5.328-18.274-13.539-23.832-22.156-5.579-8.68-9.239-17.98-11.704-27.074l-.171-.633-20.52-102.598v-1.98c.012-33.145 26.855-59.988 60-60h240c33.145.012 59.984 26.855 60 60v1.98l-.391 1.942z" fill="#c84755"/><path d="m440 200h-240v70h240v-20z" fill="#b7b7a7"/><path d="m200 200h-40c-11.031 0-20 8.969-20 20v50c0 9.566 6.746 17.578 15.73 19.543 10.977-12.004 26.758-19.543 44.27-19.543z" fill="#404a5f"/><path d="m480 200h-40v70c17.512 0 33.293 7.539 44.27 19.543 8.984-1.965 15.73-9.977 15.73-19.543v-50c0-11.031-8.969-20-20-20" fill="#404a5f"/><path d="m440 270h-240c0 11.047-8.953 20-20 20h280c-11.047 0-20-8.953-20-20z" fill="#97978c"/><path d="m200 270c-17.512 0-33.293 7.539-44.27 19.543 1.375.301 2.805.457 4.27.457h20c11.047 0 20-8.953 20-20z" fill="#394051"/><path d="m440 270c0 11.047 8.953 20 20 20h20c1.465 0 2.895-.156 4.27-.457-10.977-12.004-26.758-19.543-44.27-19.543" fill="#394051"/><path d="m440 160h-240v40h240zm60 3.426v56.574 50c0 9.578-6.734 17.586-15.727 19.543 9.047 9.895 14.832 22.824 15.633 37.062 23.328-8.226 40.094-30.496 40.094-56.605v-50c0-26.078-16.719-48.32-40-56.574m-360 0c-23.281 8.254-40 30.496-40 56.574v50c0 26.109 16.766 48.379 40.094 56.605.797-14.238 6.586-27.167 15.633-37.062-8.993-1.957-15.727-9.965-15.727-19.543v-20z" fill="#b7b7a7"/><path d="m200 160h-40c-7.008 0-13.742 1.207-20 3.426v86.574 20c0 9.578 6.734 17.586 15.727 19.543h.003c-8.984-1.965-15.73-9.977-15.73-19.543v-50c0-11.031 8.969-20 20-20h40z" fill="#404a5f"/><path d="m480 160h-40v40h40c11.031 0 20 8.969 20 20v-56.574c-6.258-2.219-12.992-3.426-20-3.426m20 110c0 9.566-6.746 17.578-15.73 19.543h.003c8.993-1.957 15.727-9.965 15.727-19.543z" fill="#404a5f"/><path d="m155.727 289.543c-9.047 9.895-14.836 22.824-15.633 37.062 1.351.477 2.722.907 4.113 1.286 8.805-22.196 30.457-37.879 55.793-37.891h240c25.336.012 46.988 15.695 55.793 37.891 1.391-.379 2.762-.809 4.113-1.286-.801-14.238-6.586-27.167-15.633-37.062-1.378.301-2.808.457-4.273.457h-20-280-20c-1.465 0-2.895-.156-4.273-.457" fill="#97978c"/><path d="m155.73 289.543c-.003 0 0 0-.003 0 1.378.301 2.808.457 4.273.457h20-20c-1.465 0-2.895-.156-4.27-.457" fill="#394051"/><path d="m484.27 289.543c-1.375.301-2.805.457-4.27.457h-20 20c1.465 0 2.895-.156 4.273-.457-.003 0 0 0-.003 0" fill="#394051"/><path d="m440 290h-240c-25.336.012-46.988 15.695-55.793 37.891 5.035 1.375 10.332 2.109 15.793 2.109h320c5.461 0 10.758-.734 15.793-2.109-8.805-22.196-30.457-37.879-55.793-37.891" fill="#a43f4a"/><path d="m520 240c0-22.09-17.91-40-40-40h-320c-22.09 0-40 17.91-40 40v50c0 22.09 17.91 40 40 40h320c22.09 0 40-17.91 40-40z" fill="#c84755"/><path d="m520 240h-20c-.012-5.586-2.207-10.457-5.859-14.141-3.68-3.652-8.555-5.847-14.141-5.859h-320c-5.586.012-10.461 2.207-14.141 5.859-3.652 3.684-5.847 8.555-5.859 14.141v50c.012 5.586 2.207 10.461 5.859 14.145 3.68 3.648 8.555 5.843 14.141 5.855h320c5.586-.012 10.461-2.207 14.141-5.855 3.652-3.684 5.847-8.559 5.859-14.145v-50h20 20v50c-.012 33.145-26.855 59.988-60 60h-320c-33.145-.012-59.988-26.855-60-60v-50c.012-33.145 26.855-59.988 60-60h320c33.145.012 59.988 26.855 60 60z" fill="#c84755"/><path d="m210 260c0-22.09-17.91-40-40-40s-40 17.91-40 40 17.91 40 40 40 40-17.91 40-40" fill="#f3cc70"/><path d="m210 260h-10c-.031-16.562-13.437-29.969-30-30-16.566.031-29.969 13.438-30 30 .031 16.566 13.434 29.973 30 30 16.563-.027 29.969-13.434 30-30h10 10c-.008 27.617-22.383 49.992-50 50-27.617-.008-49.992-22.383-50-50 .008-27.617 22.383-49.992 50-50 27.617.008 49.992 22.383 50 50z" fill="#c84755"/><path d="m510 260c0-22.09-17.91-40-40-40s-40 17.91-40 40 17.91 40 40 40 40-17.91 40-40" fill="#f3cc70"/><path d="m510 260h-10c-.031-16.562-13.437-29.969-30-30-16.566.031-29.969 13.438-30 30 .031 16.566 13.434 29.973 30 30 16.563-.027 29.969-13.434 30-30h10 10c-.008 27.617-22.383 49.992-50 50-27.617-.008-49.992-22.383-50-50 .008-27.617 22.383-49.992 50-50 27.617.008 49.992 22.383 50 50z" fill="#c84755"/></g></svg>