<svg height="85.333328" viewBox="0 0 85.333328 85.333328" width="85.333328" xmlns="http://www.w3.org/2000/svg"><g transform="matrix(.13333333 0 0 -.13333333 0 85.333331)"><path d="m640 320c0-176.73-143.27-320-320-320s-320 143.27-320 320 143.27 320 320 320 320-143.27 320-320" fill="#77caa9"/><g fill="#62a48d"><path d="m170 130.004c-5.117 0-10.238 1.953-14.141 5.859-6.543 6.543-7.605 16.492-3.187 24.141.855-1.484 1.918-2.879 3.187-4.145 3.903-3.906 9.024-5.859 14.141-5.859s10.238 1.953 14.141 5.859l34.394 34.391 8.035-8.035c.653-.652 1.321-1.305 1.989-1.938l-44.418-44.414c-3.903-3.906-9.024-5.859-14.141-5.859"/><path d="m340.203 405.063-9.996 9.996 80.207 80.211c1.27 1.265 2.332 2.664 3.188 4.144 4.418-7.648 3.359-17.598-3.188-24.141z"/><path d="m453.34 291.922-9.996 10 80.211 80.211c1.265 1.265 2.328 2.664 3.183 4.144 4.418-7.648 3.36-17.597-3.183-24.14z"/></g><path d="m184.141 155.859c-7.809-7.812-20.473-7.812-28.282 0-7.812 7.809-7.812 20.473 0 28.282l98.993 98.996c7.812 7.812 20.476 7.812 28.285 0 7.812-7.809 7.812-20.473 0-28.285z" fill="#495672"/><path d="m311.422 396.273c-7.813-7.808-20.473-7.808-28.285 0-7.809 7.813-7.809 20.473 0 28.286l98.996 98.996c7.808 7.808 20.472 7.808 28.281 0 7.813-7.813 7.813-20.477 0-28.285z" fill="#e1e3cc"/><path d="m424.559 283.137c-7.813-7.809-20.473-7.809-28.286 0-7.808 7.812-7.808 20.472 0 28.285l98.997 98.992c7.808 7.813 20.472 7.813 28.285 0 7.808-7.809 7.808-20.473 0-28.281z" fill="#e1e3cc"/><path d="m304.352 149.996c-27.293 0-54.582 10.094-75.793 30.281l8.644 8.645c19.723-15.238 43.438-22.856 67.149-22.856 28.148 0 56.3 10.739 77.781 32.219l54.14 54.141 8.032-8.035-62.172-62.176c-21.481-21.477-49.633-32.219-77.781-32.219m-113.692 68.949c-18.18 22.34-26.281 50.157-24.301 77.371 1.852-25.418 12.493-50.312 31.926-69.746z" fill="#62a48d"/><path d="m228.559 180.277c-.668.633-1.336 1.286-1.989 1.938l-8.035 8.035 8.035 8.035c3.387-3.387 6.942-6.508 10.633-9.363z" fill="#538777"/><path d="m218.535 190.25-20.25 20.25c-2.715 2.715-5.254 5.531-7.625 8.445l7.625 7.625 28.285-28.285z" fill="#404a5f"/><path d="m278.742 462.59-80.457-80.457c-42.957-42.957-42.957-112.606 0-155.563l28.285-28.285c42.957-42.957 112.606-42.957 155.563 0l80.457 80.457z" fill="#495672"/><path d="m466.984 229.996c-5.117 0-10.238 1.953-14.14 5.856l-8.539 8.539 18.285 18.285-8.031 8.035 8.031 8.031-11.215 11.219 1.965 1.961 27.789-27.785c7.809-7.809 7.809-20.473 0-28.285-3.906-3.903-9.027-5.856-14.145-5.856m-53.89 98.246-74.856 74.856 1.965 1.965 74.856-74.86zm-160.461 108.238c-5.504 7.805-4.762 18.665 2.219 25.649 3.906 3.902 9.027 5.855 14.144 5.855s10.234-1.953 14.141-5.855l18.785-18.785-1.965-1.965-21.215 21.211z" fill="#62a48d"/><path d="m338.238 403.098-9.996 9.996 1.965 1.965 9.996-9.996z" fill="#538777"/><path d="m451.375 289.961-9.996 9.996 1.965 1.965 9.996-10z" fill="#538777"/><path d="m328.242 413.094-28.285 28.285 1.965 1.965 28.285-28.285z" fill="#b7b7a7"/><path d="m441.379 299.957-28.285 28.285 1.965 1.961 28.285-28.281z" fill="#b7b7a7"/><path d="m444.305 244.391-8.032 8.035 18.286 18.285 8.031-8.035z" fill="#538777"/><path d="m436.273 252.426-181.421 181.418c-.829.828-1.567 1.711-2.219 2.636l26.109 26.11 21.215-21.211 28.285-28.285 9.996-9.996 74.856-74.856 28.285-28.285 9.996-9.996 11.215-11.219-8.031-8.031z" fill="#404a5f"/><path d="m481.129 254.852c-7.813-7.809-20.477-7.809-28.285 0l-197.992 197.992c-7.809 7.808-7.809 20.472 0 28.285 7.812 7.809 20.476 7.809 28.285 0l197.992-197.992c7.809-7.809 7.809-20.473 0-28.285" fill="#495672"/></g></svg>