<svg height="85.333328" viewBox="0 0 85.333328 85.333328" width="85.333328" xmlns="http://www.w3.org/2000/svg"><g transform="matrix(.13333333 0 0 -.13333333 0 85.333331)"><path d="m640 320c0-176.73-143.27-320-320-320s-320 143.27-320 320 143.27 320 320 320 320-143.27 320-320" fill="#77caa9"/><path d="m499.613 160c-17.398 0-35.941 8.891-49.613 20.98-34.5 30.512-38 61.024-130 61.024s-95.5-30.512-130-61.024c-13.672-12.089-32.211-20.98-49.613-20.98-26.512 0-50.387 20.633-50.387 82.004 0 101.66 46 162.73 46 162.73s22.738 38.903 57.82 38.903c13.715 0 29.321-5.949 46.18-22.485 21.367-20.961 50.684-31.437 80-31.437s58.633 10.476 80 31.437c16.863 16.539 32.465 22.485 46.18 22.485 35.078 0 57.82-38.903 57.82-38.903s46-61.07 46-162.73c0-61.375-23.871-82.004-50.387-82.004" fill="#62a48d"/><path d="m320 272.004c92 0 95.5-30.512 130-61.024 34.5-30.511 100-40.632 100 61.024 0 101.66-46 162.73-46 162.73s-44 75.266-104 16.418c-42.738-41.918-117.262-41.918-160 0-60 58.848-104-16.418-104-16.418s-46-61.07-46-162.73c0-101.656 65.5-91.535 100-61.024 34.5 30.512 38 61.024 130 61.024" fill="#495672"/><g fill="#e1e3cc"><path d="m460 300c0-11.047-8.953-20-20-20s-20 8.953-20 20 8.953 20 20 20 20-8.953 20-20"/><path d="m500 350c0-11.047-8.953-20-20-20s-20 8.953-20 20 8.953 20 20 20 20-8.953 20-20"/><path d="m190 285.047c0-8.309-6.715-15.047-15-15.047s-15 6.738-15 15.047v69.906c0 8.309 6.715 15.047 15 15.047s15-6.738 15-15.047z"/><path d="m140.047 305c-8.309 0-15.047 6.715-15.047 15s6.738 15 15.047 15h69.906c8.309 0 15.047-6.715 15.047-15s-6.738-15-15.047-15z"/></g></g></svg>