<svg height="85.333336" viewBox="0 0 85.333336 85.333336" width="85.333336" xmlns="http://www.w3.org/2000/svg"><g transform="matrix(.13333333 0 0 -.13333333 0 85.333333)"><path d="m640 320c0-176.73-143.27-320-320-320s-320 143.27-320 320 143.27 320 320 320 320-143.27 320-320" fill="#e08e4c"/><path d="m450 100h-260c-16.57 0-30 13.43-30 30v340-320c0-16.57 13.43-30 30-30h260c16.57 0 30 13.43 30 30v-20c0-16.57-13.43-30-30-30" fill="#b77744"/><path d="m360 430v90h-170c-16.57 0-30-13.43-30-30v-340c0-16.57 13.43-30 30-30h260c16.57 0 30 13.43 30 30v250h-90c-16.57 0-30 13.43-30 30" fill="#e1e3cc"/><path d="m480 400h-90c-7.348 0-14.082 2.645-19.297 7.027z" fill="#b77744"/><path d="m480 310-60 53.02v6.98h-7.898l-41.942 37.063.543-.036c5.215-4.382 11.949-7.027 19.297-7.027h90z" fill="#b7b7a7"/><path d="m360 520v-90c0-16.57 13.43-30 30-30h90z" fill="#fff"/><g fill="#b7b7a7"><path d="m220 400h96.25v20h-96.25z"/><path d="m220 300h200v20h-200z"/><path d="m420 350h-200v20h192.102l7.898-6.98z"/></g><path d="m420 363.02-7.898 6.98h7.898z" fill="#97978c"/><path d="m220 250h200v20h-200z" fill="#b7b7a7"/><path d="m220 200h200v20h-200z" fill="#b7b7a7"/></g></svg>