<svg height="85.333328" viewBox="0 0 85.333328 85.333328" width="85.333328" xmlns="http://www.w3.org/2000/svg"><g transform="matrix(.13333333 0 0 -.13333333 0 85.333331)"><path d="m640 320c0-176.73-143.27-320-320-320s-320 143.27-320 320 143.27 320 320 320 320-143.27 320-320" fill="#e1e3cc"/><path d="m320 100c-6.344 0-12.684 1.453-17.523 4.355l-175.219 105.133c-9.399 5.637-9.668 14.676-.817 20.512.262-.176.536-.344.817-.512l175.219-105.133c4.839-2.902 11.179-4.355 17.523-4.355s12.684 1.453 17.523 4.355l175.219 105.133c.281.168.555.336.817.512 8.851-5.836 8.582-14.875-.817-20.512l-175.219-105.133c-4.839-2.902-11.179-4.355-17.523-4.355" fill="#b7b7a7"/><path d="m337.523 124.355c-9.679-5.804-25.367-5.804-35.046 0l-175.219 105.133c-9.676 5.805-9.676 15.219 0 21.024l175.219 105.133c9.679 5.804 25.367 5.804 35.046 0l175.219-105.133c9.676-5.805 9.676-15.219 0-21.024z" fill="#c84755"/><path d="m480.266 270-16.668 10 49.144 29.488c.281.168.555.336.817.512 8.851-5.836 8.582-14.875-.817-20.512zm-320.532 0-32.476 19.488c-9.399 5.637-9.668 14.676-.817 20.512.262-.176.536-.344.817-.512l49.144-29.488z" fill="#b7b7a7"/><path d="m320 180c-6.344 0-12.684 1.453-17.523 4.355l-142.743 85.645 16.668 10 126.075-75.645c4.839-2.902 11.179-4.355 17.523-4.355s12.684 1.453 17.523 4.355l126.075 75.645 16.668-10-142.743-85.645c-4.839-2.902-11.179-4.355-17.523-4.355" fill="#a43f4a"/><path d="m337.523 204.355c-9.679-5.804-25.367-5.804-35.046 0l-175.219 105.133c-9.676 5.805-9.676 15.219 0 21.024l175.219 105.133c9.679 5.804 25.367 5.804 35.046 0l175.219-105.133c9.676-5.805 9.676-15.219 0-21.024z" fill="#77caa9"/><path d="m480.266 350-142.743 85.645c-4.839 2.902-11.179 4.355-17.523 4.355s-12.684-1.453-17.523-4.355l-142.743-85.645-32.476 19.488c-9.676 5.805-9.676 15.219 0 21.024l175.219 105.133c4.839 2.902 11.179 4.355 17.523 4.355s12.684-1.453 17.523-4.355l175.219-105.133c9.676-5.805 9.676-15.219 0-21.024z" fill="#b7b7a7"/><path d="m320 260c-6.344 0-12.684 1.453-17.523 4.355l-142.743 85.645 142.743 85.645c4.839 2.902 11.179 4.355 17.523 4.355s12.684-1.453 17.523-4.355l142.743-85.645-142.743-85.645c-4.839-2.902-11.179-4.355-17.523-4.355" fill="#62a48d"/><path d="m337.523 284.355c-9.679-5.804-25.367-5.804-35.046 0l-175.219 105.133c-9.676 5.805-9.676 15.219 0 21.024l175.219 105.133c9.679 5.804 25.367 5.804 35.046 0l175.219-105.133c9.676-5.805 9.676-15.219 0-21.024z" fill="#495672"/></g></svg>