<svg height="85.333328" viewBox="0 0 85.333328 85.333328" width="85.333328" xmlns="http://www.w3.org/2000/svg"><g transform="matrix(.13333333 0 0 -.13333333 0 85.333331)"><path d="m640 320c0-176.73-143.27-320-320-320s-320 143.27-320 320 143.27 320 320 320 320-143.27 320-320" fill="#c84755"/><path d="m168.285 110c-5.121 0-10.238 1.953-14.144 5.859l-28.282 28.282c-7.812 7.812-7.812 20.476 0 28.285l212.129 212.133 56.571-56.571-212.133-212.129c-3.906-3.906-9.024-5.859-14.141-5.859" fill="#a43f4a"/><path d="m408.699 342.133-56.566 56.566 70.711 70.711c3.902 3.906 9.023 5.86 14.14 5.86 5.118 0 10.239-1.954 14.145-5.86l28.281-28.281c7.813-7.813 7.813-20.477 0-28.285z" fill="#a43f4a"/><path d="m205 324.371c-8.285 0-15 6.715-15 15v30.629h30v-30.629c0-8.285-6.715-15-15-15m15 75.629h-30v19.371c0 8.285 6.715 15 15 15s15-6.715 15-15z" fill="#a43f4a"/><path d="m230.633 370h-10.633v30h10.633c8.285 0 15-6.715 15-15s-6.715-15-15-15m-40.633 0h-10.633c-8.285 0-15 6.715-15 15s6.715 15 15 15h10.633z" fill="#a43f4a"/><path d="m190 370h30v30h-30z" fill="#883840"/><path d="m335 420c-8.285 0-15 6.715-15 15v30.629h30v-30.629c0-8.285-6.715-15-15-15m15 75.629h-30v19.371c0 8.285 6.715 15 15 15s15-6.715 15-15z" fill="#a43f4a"/><path d="m360.633 465.629h-10.633v30h10.633c8.285 0 15-6.711 15-15 0-8.285-6.715-15-15-15m-40.633 0h-10.633c-8.285 0-15 6.715-15 15 0 8.289 6.715 15 15 15h10.633z" fill="#a43f4a"/><path d="m320 465.629h30v30h-30z" fill="#883840"/><path d="m495 224.367c-8.285 0-15 6.715-15 15v30.629h30v-30.629c0-8.285-6.715-15-15-15m15 75.629h-30v19.371c0 8.285 6.715 15 15 15s15-6.715 15-15z" fill="#a43f4a"/><path d="m520.633 269.996h-10.633v30h10.633c8.285 0 15-6.715 15-15s-6.715-15-15-15m-40.633 0h-10.633c-8.285 0-15 6.715-15 15s6.715 15 15 15h10.633z" fill="#a43f4a"/><path d="m480 269.996h30v30h-30z" fill="#883840"/><path d="m337.988 404.559-212.129-212.133c-7.812-7.809-7.812-20.473 0-28.285l28.282-28.282c7.812-7.812 20.476-7.812 28.285 0l212.133 212.129z" fill="#495672"/><path d="m479.41 432.844c7.813 7.808 7.813 20.472 0 28.285l-28.281 28.281c-7.813 7.813-20.477 7.813-28.285 0l-70.711-70.711 56.566-56.566z" fill="#fff"/><g fill="#f3cc70"><path d="m205 344.371c-8.285 0-15 6.715-15 15v80c0 8.285 6.715 15 15 15s15-6.715 15-15v-80c0-8.285-6.715-15-15-15"/><path d="m230.633 390h-51.266c-8.285 0-15 6.715-15 15s6.715 15 15 15h51.266c8.285 0 15-6.715 15-15s-6.715-15-15-15"/><path d="m335 440c-8.285 0-15 6.715-15 15v80c0 8.285 6.715 15 15 15s15-6.715 15-15v-80c0-8.285-6.715-15-15-15"/><path d="m360.633 485.629h-51.266c-8.285 0-15 6.715-15 15 0 8.289 6.715 15 15 15h51.266c8.285 0 15-6.711 15-15 0-8.285-6.715-15-15-15"/><path d="m495 244.367c-8.285 0-15 6.715-15 15v80c0 8.285 6.715 15 15 15s15-6.715 15-15v-80c0-8.285-6.715-15-15-15"/><path d="m520.633 289.996h-51.266c-8.285 0-15 6.715-15 15s6.715 15 15 15h51.266c8.285 0 15-6.715 15-15s-6.715-15-15-15"/></g></g></svg>