<svg height="85.333328" viewBox="0 0 85.333328 85.333328" width="85.333328" xmlns="http://www.w3.org/2000/svg"><g transform="matrix(.13333333 0 0 -.13333333 0 85.333331)"><path d="m640 320c0-176.73-143.27-320-320-320s-320 143.27-320 320 143.27 320 320 320 320-143.27 320-320" fill="#77caa9"/><g fill="#495672"><path d="m260.945 272.633c5.625 16.25 16.25 43.125 1.25 95s-36.875 72.148-66.875 72.148c0 0-51.527 2.836-55-79.023-3.84-90.492 27.914-112.711 37.871-164.473l75.25 21.5c-2.679 22.36 3.586 43.524 7.504 54.848"/><path d="m262.633 189.207-81.211-23.203c4.207-53.223 30.109-95.9727 74.523-83.9688 46.25 12.5 25.114 75.3438 6.989 106.5938z"/><path d="m379.055 352.734c-5.625 16.25-16.25 43.125-1.25 95s36.875 72.153 66.875 72.153c0 0 51.527 2.832 55-79.028 3.84-90.492-27.914-112.711-37.871-164.472l-75.25 21.5c2.679 22.363-3.582 43.523-7.504 54.847"/><path d="m377.367 269.313 81.215-23.208c-4.211-53.218-30.113-95.968-74.527-83.964-46.25 12.5-25.114 75.339-6.989 106.589z"/></g></g></svg>