<svg height="85.333328" viewBox="0 0 85.333328 85.333328" width="85.333328" xmlns="http://www.w3.org/2000/svg"><g transform="matrix(.13333333 0 0 -.13333333 0 85.333331)"><path d="m640 320c0-176.73-143.27-320-320-320s-320 143.27-320 320 143.27 320 320 320 320-143.27 320-320" fill="#77caa9"/><path d="m223.344 177.188c-5.446 0-11.067.351-16.84 1.132-26.883 3.637-61.453 12.571-105.231 30.801l18.727 24.539h102.449s32.172 26.789 70.762 59.223l38.453-5.891 73.336 62.285h-45.078c29.133 24.821 53.414 45.879 60.91 53.375 15.594 15.594 50.16 27.348 79.563 27.348 6.929 0 13.566-.652 19.605-2.062 10.629-2.477 14.855-11.637-15.145-41.637l-194.679-177.75s-35.535-31.363-86.832-31.363" fill="#62a48d"/><path d="m293.211 292.883-135.711 20.777 25.938 35.617h176.484c-21.203-18.066-44.977-38.125-66.711-56.394" fill="#62a48d"/><path d="m331.664 286.992-38.453 5.891c21.734 18.269 45.508 38.328 66.711 56.394h45.078z" fill="#538777"/><g fill="#fff"><path d="m504.855 406.301-194.679-177.75s-43.477-38.371-103.672-30.231c-26.883 3.637-61.453 12.571-105.231 30.801l18.727 24.539h102.449s175.742 146.352 198.383 168.992c19.266 19.266 67.5 32.672 99.168 25.286 10.629-2.477 14.855-11.637-15.145-41.637"/><path d="m331.668 306.992-174.168 26.668 22.5 40h230z"/></g></g></svg>