<svg height="85.333328" viewBox="0 0 85.333328 85.333328" width="85.333328" xmlns="http://www.w3.org/2000/svg"><g transform="matrix(.13333333 0 0 -.13333333 0 85.333331)"><path d="m640 320c0-176.73-143.27-320-320-320s-320 143.27-320 320 143.27 320 320 320 320-143.27 320-320" fill="#495672"/><path d="m180 120h-20c-11.047 0-20 8.953-20 20v23.426-3.426c0-11.047 8.953-20 20-20h20c11.047 0 20 8.953 20 20v-20c0-11.047-8.953-20-20-20" fill="#404a5f"/><path d="m480 120h-20c-11.047 0-20 8.953-20 20v20c0-11.047 8.953-20 20-20h20c11.047 0 20 8.953 20 20v-20c0-11.047-8.953-20-20-20" fill="#404a5f"/><path d="m200 160c0-11.047-8.953-20-20-20h-20c-11.047 0-20 8.953-20 20v110c0 11.047 8.953 20 20 20h20c11.047 0 20-8.953 20-20z" fill="#e08e4c"/><path d="m500 160c0-11.047-8.953-20-20-20h-20c-11.047 0-20 8.953-20 20v110c0 11.047 8.953 20 20 20h20c11.047 0 20-8.953 20-20z" fill="#e08e4c"/><path d="m180.594 320.168c-.832.055-1.621.117-2.352.195-1.086.11-2.047.25-2.855.399l23.89 83.91.032.117c2.082 7.902 5.711 15.336 9.48 19.539 1.879 2.141 3.672 3.508 5.363 4.356 1.715.836 3.344 1.293 5.848 1.316h200c2.504-.023 4.133-.48 5.848-1.316 2.504-1.235 5.39-3.801 8.14-8.075 2.723-4.191 5.102-9.863 6.68-15.742l22.238-84.265c-.968-.141-2.152-.278-3.511-.387l-18.868 65.176c-2.199 7.867-8.308 24.609-20.527 24.609h-200c-12.219 0-18.328-16.742-20.527-24.609z" fill="#404a5f"/><path d="m483.75 320h-20c0-.949-.102-1.348-.098-1.352l4.352-1.082-3.012 3.141-1.34-2.059 4.352-1.082-3.012 3.141 2.973-3.102-2.313 3.633-.66-.531 2.973-3.102-2.313 3.633 1-1.574-.879 1.645-.121-.071 1-1.574-.879 1.645-.168-.071c-1.039-.593-7.242-1.418-15.175-1.293-3.203 0-6.715.055-10.43.055h-240c-3.715 0-7.27-.055-10.559-.055-4.336 0-8.218.106-11.199.418-2.23.227-3.937.578-4.875.871l-.73.258-.121.059-2.262-3.887 3.867 2.098c-.441.906-1.496 1.777-1.605 1.789l-2.262-3.887 3.867 2.098-2.676-1.449 2.996.679-.32.77-2.676-1.449 2.996.679-.066 1.008h-20l19.234-5.477 25.668 90.149.032.117c2.082 7.902 5.711 15.336 9.48 19.539 1.879 2.141 3.672 3.508 5.363 4.356 1.715.836 3.344 1.293 5.848 1.316h200c2.504-.023 4.133-.48 5.848-1.316 2.504-1.235 5.39-3.801 8.14-8.075 2.735-4.211 5.121-9.914 6.703-15.82l-.031.109 23.75-90 19.34 5.102h-20 20l19.34 5.105-23.774 90.079-.007.027c-3.317 12.102-8.641 24.668-18 35.465-4.688 5.355-10.496 10.238-17.536 13.765-7.011 3.543-15.23 5.582-23.773 5.559h-200c-8.543.023-16.762-2.016-23.773-5.559-10.59-5.328-18.274-13.539-23.832-22.156-5.579-8.68-9.239-17.98-11.704-27.074l19.309-5.211-19.234 5.477-26.391-92.684v-2.793c-.047-7.547 1.82-15.527 6.285-22.121 3.289-4.93 7.766-8.695 12.203-11.168 6.731-3.738 13.227-5.102 19.258-5.902 6.059-.762 11.828-.852 17.32-.86 3.688 0 7.239.051 10.559.051h240c3.316 0 6.816-.051 10.43-.051 4.781.004 9.75.078 14.953.637 3.902.426 7.965 1.117 12.234 2.488 3.196 1.035 6.524 2.481 9.793 4.598 4.903 3.125 9.563 8.051 12.379 13.922 2.871 5.867 3.969 12.211 3.961 18.406v2.598l-.66 2.507z" fill="#f3cc70"/><path d="m440 200h-240v60h240v-10z" fill="#404a5f"/><path d="m200 200h-40c-11.031 0-20 8.969-20 20v40c0 9.566 6.746 17.578 15.73 19.543 10.977-12.004 26.758-19.543 44.27-19.543z" fill="#b77744"/><path d="m480 200h-40v60c17.512 0 33.293 7.539 44.27 19.543 8.984-1.965 15.73-9.977 15.73-19.543v-40c0-11.031-8.969-20-20-20" fill="#b77744"/><path d="m440 260h-240v10c0 3.641-.973 7.051-2.672 9.992.586.004 1.164.008 1.738.008h241.864c.578 0 1.156-.004 1.742-.008-1.699-2.941-2.672-6.351-2.672-9.992z" fill="#394051"/><path d="m200 260c-17.512 0-33.293 7.539-44.27 19.543 1.375.301 2.805.457 4.27.457h24.109c1.805-.039 3.582-.051 5.332-.051 2.715 0 5.36.028 7.887.043 1.699-2.941 2.672-6.351 2.672-9.992z" fill="#97633d"/><path d="m440 260v10c0 3.641.973 7.051 2.672 9.992 2.508-.015 5.101-.043 7.758-.043 1.715 0 3.449.012 5.211.051h24.359c1.465 0 2.895-.156 4.27-.457-10.977-12.004-26.758-19.543-44.27-19.543" fill="#97633d"/><path d="m450.43 279.949c-2.657 0-5.25.028-7.758.043-.586.004-1.164.008-1.742.008h14.711c-1.762-.039-3.496-.051-5.211-.051m-260.989 0c-1.75 0-3.527.012-5.332.051h14.957c-.574 0-1.152-.004-1.738-.008-2.527-.015-5.172-.043-7.887-.043" fill="#c7a85f"/><path d="m440 160h-240v40h240zm60 3.426v56.574 40 10c0 7.313-3.926 13.707-9.781 17.195 1.109 1.696 2.136 3.446 3.074 5.254 2.582 2.614 4.852 5.719 6.496 9.145 2.133 4.355 3.285 8.976 3.734 13.601 21.426-9.164 36.477-30.453 36.477-55.195v-40c0-26.078-16.719-48.32-40-56.574m-360 0c-23.281 8.254-40 30.496-40 56.574v40c0 24.051 14.223 44.84 34.695 54.398.703-5.773 2.594-11.543 5.965-16.519 2.11-3.16 4.707-5.844 7.469-8.016.527-.902 1.078-1.793 1.652-2.668-5.855-3.488-9.781-9.882-9.781-17.195v-20zm312.063 156.508c-.536 0-1.079.004-1.633.011-3.203 0-6.715.055-10.43.055h15.684c-1.145-.043-2.356-.066-3.621-.066m-262.836.011c-1.629 0-3.192.02-4.661.055h15.434c-3.715 0-7.27-.055-10.559-.055-.07 0-.144 0-.214 0" fill="#404a5f"/><path d="m200 160h-40c-7.008 0-13.742 1.207-20 3.426v86.574 20c0 7.313 3.926 13.707 9.781 17.195 1.778-2.711 3.77-5.269 5.949-7.652-8.984-1.965-15.73-9.977-15.73-19.543v-40c0-11.031 8.969-20 20-20h40z" fill="#b77744"/><path d="m480 160h-40v40h40c11.031 0 20 8.969 20 20v-56.574c-6.258-2.219-12.992-3.426-20-3.426m20 100c0 9.566-6.746 17.578-15.73 19.543 2.179 2.383 4.171 4.941 5.949 7.652 5.855-3.488 9.781-9.882 9.781-17.195z" fill="#b77744"/><path d="m440.93 280h-241.864.934 240zm-291.149 7.195c-.574.875-1.125 1.766-1.652 2.668.93-.73 1.879-1.402 2.836-2.015-.402-.203-.797-.422-1.184-.653m340.438 0c-.633.379-1.293.723-1.973 1.032 1.75 1.195 3.457 2.613 5.047 4.222-.938-1.808-1.965-3.558-3.074-5.254" fill="#394051"/><path d="m155.73 279.543c-2.179 2.383-4.171 4.941-5.949 7.652.387.231.782.45 1.184.653.633-.407 1.265-.785 1.898-1.137 6.731-3.738 13.227-5.102 19.258-5.902 4.129-.52 8.121-.727 11.988-.809h-24.109c-1.465 0-2.895-.156-4.27-.457" fill="#97633d"/><path d="m484.27 279.543c-1.375.301-2.805.457-4.27.457h-24.359c3.16.07 6.402.227 9.742.586 3.902.426 7.965 1.117 12.234 2.488 3.196 1.035 6.524 2.481 9.793 4.598.281.18.559.363.836.555.68-.309 1.34-.653 1.973-1.032-1.778-2.711-3.77-5.269-5.949-7.652" fill="#97633d"/><path d="m455.641 280h-14.711c-.313 0-.621 0-.93 0h-240c-.309 0-.621 0-.934 0h-14.957c-3.867.082-7.859.289-11.988.809-6.031.8-12.527 2.164-19.258 5.902-.633.352-1.265.73-1.898 1.137-.957.613-1.906 1.285-2.836 2.015-2.762 2.172-5.359 4.856-7.469 8.016-3.371 4.976-5.262 10.746-5.965 16.519 7.696 3.594 16.27 5.602 25.305 5.602h24.566c1.469-.035 3.032-.055 4.661-.055h.214c3.289 0 6.844.055 10.559.055h240c3.715 0 7.227-.055 10.43-.055.554-.007 1.097-.011 1.633-.011 1.265 0 2.476.023 3.621.066h24.316c8.344 0 16.297-1.715 23.523-4.805-.449-4.625-1.601-9.246-3.734-13.601-1.644-3.426-3.914-6.531-6.496-9.145-1.59-1.609-3.297-3.027-5.047-4.222-.277-.192-.555-.375-.836-.555-3.269-2.117-6.597-3.563-9.793-4.598-4.269-1.371-8.332-2.062-12.234-2.488-3.34-.359-6.582-.516-9.742-.586" fill="#c7a85f"/><path d="m520 240c0-22.09-17.91-40-40-40h-320c-22.09 0-40 17.91-40 40v40c0 22.09 17.91 40 40 40h320c22.09 0 40-17.91 40-40z" fill="#f3cc70"/><path d="m520 240h-20c-.012-5.586-2.207-10.457-5.859-14.141-3.68-3.652-8.555-5.847-14.141-5.859h-320c-5.586.012-10.461 2.207-14.141 5.859-3.652 3.684-5.847 8.555-5.859 14.141v40c.012 5.586 2.207 10.461 5.859 14.145 3.68 3.648 8.555 5.843 14.141 5.855h320c5.586-.012 10.461-2.207 14.141-5.855 3.652-3.684 5.847-8.559 5.859-14.145v-40h20 20v40c-.012 33.145-26.855 59.988-60 60h-320c-33.145-.012-59.988-26.855-60-60v-40c.012-33.145 26.855-59.988 60-60h320c33.145.012 59.988 26.855 60 60z" fill="#f3cc70"/><path d="m210 250c0-22.09-17.91-40-40-40s-40 17.91-40 40 17.91 40 40 40 40-17.91 40-40" fill="#e08e4c"/><path d="m210 250h-10c-.031-16.562-13.437-29.969-30-30-16.566.031-29.969 13.438-30 30 .031 16.566 13.434 29.973 30 30 16.563-.027 29.969-13.434 30-30h10 10c-.008 27.617-22.383 49.992-50 50-27.617-.008-49.992-22.383-50-50 .008-27.617 22.383-49.992 50-50 27.617.008 49.992 22.383 50 50z" fill="#f3cc70"/><path d="m510 250c0-22.09-17.91-40-40-40s-40 17.91-40 40 17.91 40 40 40 40-17.91 40-40" fill="#e08e4c"/><path d="m510 250h-10c-.031-16.562-13.437-29.969-30-30-16.566.031-29.969 13.438-30 30 .031 16.566 13.434 29.973 30 30 16.563-.027 29.969-13.434 30-30h10 10c-.008 27.617-22.383 49.992-50 50-27.617-.008-49.992-22.383-50-50 .008-27.617 22.383-49.992 50-50 27.617.008 49.992 22.383 50 50z" fill="#f3cc70"/><path d="m375.625 462.754c0-8.93 1.246-8.082-7.684-8.082h-97c-8.929 0-8.441-.848-8.441 8.082l.355 6.379c2.184 8.082 7.239 16.164 16.168 16.164h80.836c8.93 0 13.985-8.082 16.168-16.164z" fill="#495672"/><path d="m375.625 462.754h-20c.004-2.328.066-4.098.059-4.555v-.074l14.121-.348-13.442 4.118c-.773-2.707-.636-3.657-.679-3.77l14.121-.348-13.442 4.118 17.496-5.364-12.836 13.012c-2.597-2.523-4.093-5.688-4.66-7.648l17.496-5.364-12.836 13.012 12.903-13.078-7.039 16.976c-1.719-.699-3.961-2.003-5.864-3.898l12.903-13.078-7.039 16.976 6.074-14.656-1.426 15.848c-.582-.078-2.015-.137-4.648-1.192l6.074-14.656-1.426 15.848.559-6.219-.18 6.246-.379-.027.559-6.219-.18 6.246-.434-.004c-.718 0-1.96.016-3.539.016h-97c-1.601 0-2.867-.02-3.589-.02l-.442.004h-.062l-.696-14.148 5.102 13.121c-3.051 1.113-4.262.973-4.406 1.027l-.696-14.148 5.102 13.121-6.551-16.848 14.141 11.227c-2.106 2.75-5.367 4.824-7.59 5.621l-6.551-16.848 14.141 11.227-13.864-11.008 16.836 5.52c-.461 1.425-1.367 3.468-2.972 5.488l-13.864-11.008 16.836 5.52-12.691-4.161 13.379.879c-.035.184-.004 1.102-.688 3.282l-12.691-4.161 13.379.879-.578-.039.582.024-.004.015-.578-.039.582.024-.012 1.168c0 .601.004 1.41.004 2.363h-20l19.969-1.117.355 6.379-19.969 1.117 19.313-5.211c.254.953.586 1.828.867 2.406l.438.758-.285.211.261-.234.024.023-.285.211.261-.234-3.594 3.21 2.102-4.265c.91.445 1.395.941 1.492 1.055l-3.594 3.21 2.102-4.265-2.934 5.957v-6.664l2.934.707-2.934 5.957v-6.664h80.836v6.668l-2.976-5.942 2.976-.726v6.668l-2.976-5.942 2.383 4.754-3.707-3.847 1.324-.907 2.383 4.754-3.707-3.847 1.5 1.562-1.645-1.41.145-.152 1.5 1.562-1.645-1.41.004-.008c.141-.137.879-1.5 1.297-3.156l19.312 5.211-19.961 1.254-.402-6.375-.039-.625v-.633h20l19.961-1.254.398 6.375.207 3.289-.855 3.18c-1.707 6.14-4.367 12.75-9.813 19.074-2.734 3.125-6.277 6.145-10.714 8.371-4.414 2.238-9.696 3.531-14.95 3.508h-80.836c-5.253.023-10.535-1.27-14.949-3.508-6.687-3.375-11.222-8.375-14.308-13.152-3.098-4.84-4.957-9.668-6.219-14.293l-.543-2.012-.473-8.461-.031-.555v-.562l-.004-2.363c.016-1.508-.031-3 .262-5.571.265-1.898.668-4.675 2.574-8.347 1.395-2.711 3.91-5.696 6.738-7.625 4.328-2.965 8.063-3.594 10.289-3.918 2.325-.289 3.727-.262 4.993-.278 1.242 0 2.343.02 3.589.02h97c1.27 0 2.356-.016 3.539-.016 1.239.016 2.602-.023 5.043.301 1.813.277 4.461.754 7.836 2.566 2.493 1.332 5.196 3.61 7.036 6.192 2.828 3.945 3.613 7.57 3.964 9.754.332 2.273.313 3.621.325 4.73-.004 1.797-.063 2.992-.059 4.555h-20l19.961-1.254z" fill="#f3cc70"/></g></svg>