<svg xmlns="http://www.w3.org/2000/svg" xmlns:xlink="http://www.w3.org/1999/xlink" viewBox="0 0 79.93492916913466 95.481" height="95.481" width="79.93492916913466" data-background-color="#ffffff" preserveAspectRatio="xMidYMid meet" id="tight-bounds"><g><svg viewBox="0 0 79.93492916913466 95.481" height="95.481" width="79.93492916913466"><g><svg viewBox="0 0 79.93492916913466 95.481" height="95.481" width="79.93492916913466"><g id="textblocktransform"><svg viewBox="0 0 79.93492916913466 95.481" height="95.481" width="79.93492916913466" id="textblock"><g><svg viewBox="0 0 79.93492916913466 95.481" height="95.481" width="79.93492916913466"><g><svg viewBox="0 0 79.93492916913466 95.481" height="95.481" width="79.93492916913466"><g><svg xmlns="http://www.w3.org/2000/svg" xml:space="preserve" viewBox="11.163283348083496 4 73.6719741821289 88" x="0" y="0" height="95.481" width="79.93492916913466" class="icon-icon-0" data-fill-palette-color="accent" id="icon-0"><path d="M24.691 12.769l-3.064 9.709a1.503 1.503 0 0 0 1.733 1.921l10.589-2.185-0.605-2.938-4.798 0.99c5.653-4.002 12.386-6.168 19.454-6.168a33.9 33.9 0 0 1 9.639 1.393c-0.056 0.486-0.091 0.978-0.091 1.479 0 7.151 5.816 12.968 12.966 12.968 1.91 0 3.719-0.425 5.353-1.17 8.023 11.615 8.053 27.129-0.517 38.923l2.428 1.764c9.297-12.795 9.297-29.61 0.658-42.24 3.064-2.375 5.048-6.078 5.048-10.245C83.483 9.818 77.665 4 70.514 4 64.91 4 60.14 7.581 58.332 12.569A37 37 0 0 0 48 11.097c-8.004 0-15.617 2.542-21.92 7.241l1.473-4.666z m36.481 0.759C62.577 9.725 66.229 7 70.514 7c5.497 0 9.97 4.472 9.97 9.969 0 3.185-1.508 6.019-3.84 7.845a10 10 0 0 1-2.652 1.485 9.9 9.9 0 0 1-3.478 0.638c-5.495 0-9.966-4.472-9.966-9.968 0-0.154 0.017-0.304 0.023-0.456a9.9 9.9 0 0 1 0.601-2.985M18.223 26.289c-9.339 12.853-9.301 29.762-0.547 42.412-3.127 2.37-5.159 6.112-5.159 10.33C12.517 86.182 18.333 92 25.482 92c5.699 0 10.541-3.7 12.276-8.819a37 37 0 0 0 10.241 1.449c7.98 0 15.956-2.585 22.568-7.734l-1.28 6.204 2.938 0.606 2.186-10.589a1.5 1.5 0 0 0-1.921-1.733l-9.709 3.066 0.904 2.86 1.872-0.591c-8.228 5.007-18.146 6.187-27.167 3.526 0.037-0.4 0.062-0.804 0.062-1.214 0-7.151-5.818-12.968-12.97-12.968-1.855 0-3.617 0.399-5.215 1.104-8.155-11.636-8.234-27.255 0.383-39.114z m7.259 42.774c5.497 0 9.97 4.472 9.97 9.968 0 0.064-0.009 0.126-0.01 0.189a9.9 9.9 0 0 1-0.525 3.007C33.58 86.159 29.86 89 25.482 89c-5.495 0-9.966-4.472-9.966-9.969 0-3.242 1.563-6.119 3.967-7.941a10 10 0 0 1 5.999-2.027" fill="#83b6b9" data-fill-palette-color="accent"/><path d="M64.272 15.77c0.126 0.484 0.336 0.918 0.62 1.283q0.486 0.63 1.29 1c0.518 0.231 1.13 0.348 1.818 0.348h1.013v3.178h-3.105v3h3.104v1.089h3v-1.089h1.538c0.88 0 1.618-0.316 2.174-0.854 0.671-0.648 1.071-1.624 1.071-2.829v-1.813c0-2.203-1.304-3.684-3.245-3.684h-1.538v-3.042h3.416v-3h-3.416V8.271h-3v1.088h-1.013q-1.034 0-1.832 0.354c-0.524 0.24-0.953 0.574-1.274 0.991a3.6 3.6 0 0 0-0.625 1.294c-0.11 0.437-0.167 0.93-0.167 1.465v0.833c0 0.18 0.016 0.348 0.028 0.518 0.027 0.335 0.068 0.66 0.143 0.956m2.831-2.308c0-0.282 0.026-0.534 0.072-0.716a0.5 0.5 0 0 1 0.095-0.21s0.033-0.043 0.134-0.089c0.06-0.026 0.236-0.088 0.598-0.088h1.013V15.4h-1.013c-0.361 0-0.538-0.062-0.584-0.082a0.4 0.4 0 0 1-0.152-0.102 0.5 0.5 0 0 1-0.087-0.194 3 3 0 0 1-0.075-0.727z m6.694 5.622v1.813c0 0.357-0.092 0.612-0.121 0.661l-0.004 0.008s-0.034 0.013-0.12 0.013h-1.538V18.4h1.538q0.091 0.001 0.103 0.004c0.06 0.078 0.142 0.352 0.142 0.68M19.071 75.524v0.834a6 6 0 0 0 0.171 1.475q0.187 0.72 0.623 1.288 0.489 0.628 1.287 0.995c0.517 0.23 1.128 0.347 1.816 0.347h1.014v3.178H20.88v3h3.103v1.088h3v-1.088h1.538c1.941 0 3.246-1.48 3.246-3.684v-1.812c0-0.104-0.017-0.197-0.022-0.297-0.115-2.034-1.373-3.387-3.224-3.387h-1.538v-3.042h3.415v-3h-3.415V70.33h-3v1.089h-1.014c-0.693 0-1.307 0.118-1.83 0.353q-0.388 0.177-0.707 0.426a3.2 3.2 0 0 0-0.574 0.572q-0.425 0.558-0.618 1.287a6 6 0 0 0-0.169 1.467m9.552 4.943c0.062 0.077 0.144 0.351 0.144 0.679v1.812c0 0.34-0.088 0.622-0.125 0.67-0.001 0-0.034 0.013-0.121 0.013h-1.538v-3.179h1.538c0.06 0.001 0.093 0.007 0.102 0.005m-4.641-4.761v1.757h-1.014c-0.36 0-0.537-0.061-0.582-0.082a0.4 0.4 0 0 1-0.147-0.095 0.55 0.55 0 0 1-0.092-0.201 3 3 0 0 1-0.076-0.727v-0.834c0-0.28 0.026-0.531 0.073-0.716a0.5 0.5 0 0 1 0.09-0.205 0.4 0.4 0 0 1 0.144-0.097 1 1 0 0 1 0.222-0.058c0.092-0.015 0.209-0.027 0.369-0.027h1.014v1.285zM48 23.075c-13.743 0-24.925 11.182-24.925 24.925S34.257 72.925 48 72.925 72.925 61.744 72.925 48 61.743 23.075 48 23.075m-1.5 3.254v8.596a46 46 0 0 0-6.773 0.691c1.566-4.857 4.003-8.347 6.773-9.287m0 11.599V46.5h-8.572c0.089-2.697 0.414-5.277 0.93-7.643a42.6 42.6 0 0 1 7.642-0.929M34.925 46.5h-8.596c0.94-2.769 4.431-5.207 9.287-6.773a46 46 0 0 0-0.691 6.773m0 3c0.07 2.371 0.309 4.641 0.691 6.773-4.856-1.566-8.347-4.004-9.287-6.773z m3.003 0H46.5v8.572a42.6 42.6 0 0 1-7.643-0.929 42.8 42.8 0 0 1-0.929-7.643M46.5 61.075v8.596c-2.77-0.94-5.207-4.431-6.773-9.288a46 46 0 0 0 6.773 0.692m3 8.596v-8.596a46 46 0 0 0 6.773-0.691c-1.566 4.857-4.003 8.347-6.773 9.287m0-11.599V49.5h8.572a42.7 42.7 0 0 1-0.93 7.643c-2.365 0.516-4.945 0.84-7.642 0.929M61.075 49.5h8.596c-0.94 2.769-4.431 5.207-9.287 6.773 0.383-2.132 0.621-4.402 0.691-6.773m0-3a46 46 0 0 0-0.691-6.773c4.856 1.566 8.347 4.004 9.287 6.773z m-3.003 0H49.5v-8.572c2.697 0.088 5.277 0.413 7.643 0.929 0.515 2.366 0.84 4.946 0.929 7.643M49.5 34.925v-8.596c2.77 0.94 5.207 4.431 6.773 9.288a46 46 0 0 0-6.773-0.692m-8.95-7.545c-1.759 2.279-3.196 5.36-4.182 8.988-3.628 0.985-6.709 2.422-8.987 4.182A22.03 22.03 0 0 1 40.55 27.38M27.381 55.45c2.278 1.759 5.359 3.196 8.987 4.182 0.985 3.628 2.423 6.709 4.182 8.988a22.03 22.03 0 0 1-13.169-13.17M55.45 68.62c1.759-2.279 3.196-5.36 4.182-8.988 3.628-0.985 6.709-2.422 8.987-4.182A22.03 22.03 0 0 1 55.45 68.62m4.182-32.252c-0.985-3.628-2.423-6.709-4.182-8.988a22.03 22.03 0 0 1 13.169 13.17c-2.278-1.759-5.359-3.196-8.987-4.182" fill="#83b6b9" data-fill-palette-color="accent"/></svg></g></svg></g></svg></g></svg></g></svg></g></svg></g><defs/></svg>